<?xml version="1.0" encoding="utf-8"?>
<!-- Generator: Adobe Illustrator 24.2.3, SVG Export Plug-In . SVG Version: 6.00 Build 0)  -->
<svg version="1.1" id="Layer_1" xmlns="http://www.w3.org/2000/svg" xmlns:xlink="http://www.w3.org/1999/xlink" x="0px" y="0px" width="2147px" height="1344px"
	 viewBox="0 0 1030.3 644.6" style="enable-background:new 0 0 1030.3 644.6;" xml:space="preserve">
<style type="text/css">
	.st0{opacity:0.63;}
	.st1{fill:#3E1C2C;}
	.st2{opacity:0.5;fill:none;stroke:#FFFFFF;stroke-miterlimit:10;enable-background:new    ;}
</style>
<g>
	<g id="box10">
		<g class="st0">
			<rect x="899.5" y="522.6" class="st1" width="99.8" height="91.6"/>
			<rect x="899.5" y="522.6" class="st2" width="99.8" height="91.6"/>
		</g>
	</g>
	<g id="box9">
		<g class="st0">
			<rect x="899.5" y="400" class="st1" width="99.8" height="92.6"/>
			<rect x="899.5" y="400" class="st2" width="99.8" height="92.6"/>
		</g>
	</g>
	<g id="box8">
		<g class="st0">
			<rect x="598.8" y="400" class="st1" width="270.4" height="214.2"/>
			<rect x="598.8" y="400" class="st2" width="270.4" height="214.2"/>
		</g>
	</g>
	<g id="box7">
		<g class="st0">
			<rect x="407.4" y="400" class="st1" width="158.9" height="214.1"/>
			<rect x="407.4" y="400" class="st2" width="158.9" height="214.1"/>
		</g>
	</g>
	<g id="box6">
		<g class="st0">
			<rect x="30" y="399.2" class="st1" width="347.2" height="214.9"/>
			<rect x="30" y="399.2" class="st2" width="347.2" height="214.9"/>
		</g>
	</g>
	<g id="box5">
		<g class="st0">
			<polygon class="st1" points="542.1,370.1 542.1,263.7 717.7,263.7 717.7,370 			"/>
			<polygon class="st2" points="542.1,370.1 542.1,263.7 717.7,263.7 717.7,370 			"/>
		</g>
	</g>
	<g id="box4">
		<g class="st0">
			<rect x="30" y="292.9" class="st1" width="128.7" height="74.9"/>
			<rect x="30" y="292.9" class="st2" width="128.7" height="74.9"/>
		</g>
	</g>
	<g id="box3">
		<g class="st0">
			<polygon class="st1" points="747.8,30.5 999.3,30.5 999.3,369.5 747.6,369.5 			"/>
			<polygon class="st2" points="747.8,30.5 999.3,30.5 999.3,369.5 747.6,369.5 			"/>
		</g>
	</g>
	<g id="box2">
		<g class="st0">
			<rect x="542.1" y="30.5" class="st1" width="175.6" height="203.2"/>
			<rect x="542.1" y="30.5" class="st2" width="175.6" height="203.2"/>
		</g>
	</g>
	<g id="box1">
		<g class="st0">
			<polygon class="st1" points="511.8,30.5 512.1,367.8 186.1,367.8 186.1,265.4 30,265.4 30,30.5 			"/>
			<polygon class="st2" points="511.8,30.5 512.1,367.8 186.1,367.8 186.1,265.4 30,265.4 30,30.5 			"/>
		</g>
	</g>
</g>
</svg>
